<?xml version="1.0" encoding="UTF-8"?><svg version="1.1" width="24px" height="24px" viewBox="0 0 24.0 24.0" xmlns="http://www.w3.org/2000/svg" xmlns:xlink="http://www.w3.org/1999/xlink"><defs><clipPath id="i0"><path d="M24,0 L24,24 L0,24 L0,0 L24,0 Z"></path></clipPath><clipPath id="i1"><path d="M16,18 L16,20 L0,20 L0,18 L16,18 Z M8,0 C10.7614237,0 13,2.23857625 13,5 C13,6.63581783 12.2144467,8.08815986 11,9.00036619 L11,12 L14,12 C15.1045695,12 16,12.8954305 16,14 L16,17 L0,17 L0,14 C0,12.8954305 0.8954305,12 2,12 L5,12 L5,9.00036619 C3.7855533,8.08815986 3,6.63581783 3,5 C3,2.23857625 5.23857625,0 8,0 Z M8,2 C6.34314575,2 5,3.34314575 5,5 C5,5.95733 5.44901826,6.83628125 6.20115532,7.40123333 L7,8.00126886 L7,14 L2,14 L2,15 L14,15 L14,14 L9,14 L9,8.00126886 L9.79884468,7.40123333 C10.5509817,6.83628125 11,5.95733 11,5 C11,3.34314575 9.65685425,2 8,2 Z"></path></clipPath></defs><rect x="0px" y="0px" width="24px" height="24px" fill="#FFFFFF"></rect><g clip-path="url(#i0)"><g transform="translate(4.0 2.0)"><g clip-path="url(#i1)"><g transform="translate(-4.0 -2.0)"><g clip-path="url(#i0)"><polygon points="4,2 20,2 20,22 4,22 4,2" stroke="none" fill="#313133"></polygon></g></g></g></g></g></svg>