<?xml version="1.0" encoding="UTF-8"?><svg version="1.1" width="24px" height="24px" viewBox="0 0 24.0 24.0" xmlns="http://www.w3.org/2000/svg" xmlns:xlink="http://www.w3.org/1999/xlink"><defs><clipPath id="i0"><path d="M24,0 L24,24 L0,24 L0,0 L24,0 Z"></path></clipPath><clipPath id="i1"><path d="M16,6 C17.1045695,6 18,6.8954305 18,8 L18,16 C18,17.1045695 17.1045695,18 16,18 L7,18 C5.8954305,18 5,17.1045695 5,16 L5,14 L7,14 L7,16 L16,16 L16,8 L5,8 C5,6.8954305 5.8954305,6 7,6 L16,6 Z M11,0 C12.1045695,0 13,0.8954305 13,2 L13,4 L11,4 L11,2 L2,2 L2,10 L13,10 C13,11.1045695 12.1045695,12 11,12 L2,12 C0.8954305,12 0,11.1045695 0,10 L0,2 C0,0.8954305 0.8954305,0 2,0 L11,0 Z"></path></clipPath></defs><rect x="0px" y="0px" width="24px" height="24px" fill="#FFFFFF"></rect><g clip-path="url(#i0)"><g transform="translate(3.0 3.0)"><g clip-path="url(#i1)"><polygon points="0,0 18,0 18,18 0,18 0,0" stroke="none" fill="#313133"></polygon></g></g></g></svg>