<?xml version="1.0" encoding="UTF-8"?><svg version="1.1" width="24px" height="24px" viewBox="0 0 24.0 24.0" xmlns="http://www.w3.org/2000/svg" xmlns:xlink="http://www.w3.org/1999/xlink"><defs><clipPath id="i0"><path d="M24,0 L24,24 L0,24 L0,0 L24,0 Z"></path></clipPath><clipPath id="i1"><path d="M10,0 C15.5228475,0 20,4.4771525 20,10 C20,15.5228475 15.5228475,20 10,20 C4.4771525,20 0,15.5228475 0,10 C0,4.4771525 4.4771525,0 10,0 Z M10,2 C5.581722,2 2,5.581722 2,10 C2,14.418278 5.581722,18 10,18 C14.418278,18 18,14.418278 18,10 C18,5.581722 14.418278,2 10,2 Z M11,8 L11,14 L12,14 L12,15.5 L8,15.5 L8,14 L9,14 L9,9.5 L8,9.5 L8,8 L11,8 Z M10,4 C10.8284271,4 11.5,4.67157288 11.5,5.5 C11.5,6.32842712 10.8284271,7 10,7 C9.17157288,7 8.5,6.32842712 8.5,5.5 C8.5,4.67157288 9.17157288,4 10,4 Z"></path></clipPath></defs><rect x="0px" y="0px" width="24px" height="24px" fill="#FFFFFF"></rect><g clip-path="url(#i0)"><g transform="translate(2.0 2.0)"><g clip-path="url(#i1)"><g transform="translate(-2.0 -2.0)"><g clip-path="url(#i0)"><polygon points="2,2 22,2 22,22 2,22 2,2" stroke="none" fill="#313133"></polygon></g></g></g></g></g></svg>