<?xml version="1.0" encoding="UTF-8"?><svg version="1.1" width="24px" height="24px" viewBox="0 0 24.0 24.0" xmlns="http://www.w3.org/2000/svg" xmlns:xlink="http://www.w3.org/1999/xlink"><defs><clipPath id="i0"><path d="M24,0 L24,24 L0,24 L0,0 L24,0 Z"></path></clipPath><clipPath id="i1"><path d="M10,0 C15.5228475,0 20,4.4771525 20,10 C20,15.5228475 15.5228475,20 10,20 C4.4771525,20 0,15.5228475 0,10 C0,4.4771525 4.4771525,0 10,0 Z M10,2 C5.581722,2 2,5.581722 2,10 C2,14.418278 5.581722,18 10,18 C14.418278,18 18,14.418278 18,10 C18,5.581722 14.418278,2 10,2 Z M13.4923886,6.09339818 L14.9076114,7.50660182 L8.38275847,14.0407772 L4.99289322,10.650912 L6.40710678,9.23669839 L8.38174854,11.2113402 L13.4923886,6.09339818 Z"></path></clipPath></defs><rect x="0px" y="0px" width="24px" height="24px" fill="#FFFFFF"></rect><g clip-path="url(#i0)"><g transform="translate(2.0 2.0)"><g clip-path="url(#i1)"><g transform="translate(-2.0 -2.0)"><g clip-path="url(#i0)"><polygon points="2,2 22,2 22,22 2,22 2,2" stroke="none" fill="#313133"></polygon></g></g></g></g></g></svg>