<?xml version="1.0" encoding="UTF-8"?><svg version="1.1" width="24px" height="24px" viewBox="0 0 24.0 24.0" xmlns="http://www.w3.org/2000/svg" xmlns:xlink="http://www.w3.org/1999/xlink"><defs><clipPath id="i0"><path d="M24,0 L24,24 L0,24 L0,0 L24,0 Z"></path></clipPath><clipPath id="i1"><path d="M14.199,1.699 L12.199,3.699 L2,3.7 L2,16.7 L15,16.7 L15,6.556 L17,4.556 L17,17.7 C17,18.2522847 16.5522847,18.7 16,18.7 L1,18.7 C0.44771525,18.7 1.38555833e-13,18.2522847 1.38555833e-13,17.7 L1.38555833e-13,2.7 C1.38555833e-13,2.14771525 0.44771525,1.7 1,1.7 L14.199,1.699 Z M17.3137085,1.15463195e-14 L18.7279221,1.41421356 L8.82842712,11.3137085 L7.0865801,11.8943242 C7.04552674,11.9080086 7.00114236,11.9080086 6.96008899,11.8943242 C6.85530033,11.8593946 6.79866833,11.7461306 6.83359789,11.641342 L7.41421356,9.89949494 L17.3137085,1.15463195e-14 Z"></path></clipPath></defs><rect x="0px" y="0px" width="24px" height="24px" fill="#FFFFFF"></rect><g clip-path="url(#i0)"><g transform="translate(3.0 2.2999999999999865)"><g clip-path="url(#i1)"><g transform="translate(-3.0 -2.2999999999999865)"><g clip-path="url(#i0)"><polygon points="3,2.3 21.7279221,2.3 21.7279221,21 3,21 3,2.3" stroke="none" fill="#313133"></polygon></g></g></g></g></g></svg>