<?xml version="1.0" encoding="UTF-8"?><svg version="1.1" width="24px" height="24px" viewBox="0 0 24.0 24.0" xmlns="http://www.w3.org/2000/svg" xmlns:xlink="http://www.w3.org/1999/xlink"><defs><clipPath id="i0"><path d="M24,0 L24,24 L0,24 L0,0 L24,0 Z"></path></clipPath><clipPath id="i1"><path d="M6,0 L6,2 L12,2 L12,0 L14,0 L14,2 L17,2 C17.5522847,2 18,2.44771525 18,3 L18,18 C18,18.5522847 17.5522847,19 17,19 L1,19 C0.44771525,19 0,18.5522847 0,18 L0,3 C0,2.44771525 0.44771525,2 1,2 L4,2 L4,0 L6,0 Z M2,17 L16,17 L16,8 L2,8 L2,17 Z M2,6 L16,6 L16,4 L2,4 L2,6 Z"></path></clipPath><clipPath id="i2"><path d="M2.92301882,0 L6.07698118,3.15396236 L7.88490591,1.34603764 L9,2.46113172 L6.07698118,5.38415054 L2.92301882,2.23018818 L1.11509409,4.03811291 L0,2.92301882 L2.92301882,0 Z"></path></clipPath></defs><rect x="0px" y="0px" width="24px" height="24px" fill="#FFFFFF"></rect><g clip-path="url(#i0)"><g transform="translate(3.0 2.0)"><g clip-path="url(#i1)"><g transform="translate(-3.0 -2.0)"><g clip-path="url(#i0)"><polygon points="3,2 21,2 21,21 3,21 3,2" stroke="none" fill="#313133"></polygon></g></g></g></g><g transform="translate(7.0000000000000036 11.0)"><g clip-path="url(#i2)"><polygon points="0,0 9,0 9,5.38415054 0,5.38415054 0,0" stroke="none" fill="#313133"></polygon></g></g></g></svg>