<?xml version="1.0" encoding="UTF-8"?><svg version="1.1" width="24px" height="24px" viewBox="0 0 24.0 24.0" xmlns="http://www.w3.org/2000/svg" xmlns:xlink="http://www.w3.org/1999/xlink"><defs><clipPath id="i0"><path d="M24,0 L24,24 L0,24 L0,0 L24,0 Z"></path></clipPath><clipPath id="i1"><path d="M11.5,0 C12.053,0 12.5,0.448 12.5,1 L12.5,5 C12.5,5.552 12.053,6 11.5,6 L10,6 L10,8 L14.5,8 C15.053,8 15.5,8.446 15.5,8.999 L15.5,12 L17,12 C17.553,12 18,12.447 18,13 L18,17 C18,17.553 17.553,18 17,18 L12,18 C11.447,18 11,17.553 11,17 L11,13 C11,12.447 11.447,12 12,12 L13.5,12 L13.5,10 L4.5,10 L4.5,12 L6,12 C6.553,12 7,12.447 7,13 L7,17 C7,17.553 6.553,18 6,18 L1,18 C0.447,18 0,17.553 0,17 L0,13 C0,12.447 0.447,12 1,12 L2.5,12 L2.5,9 C2.5,8.448 2.947,8 3.5,8 L8,8 L8,6 L6.5,6 C5.947,6 5.5,5.552 5.5,5 L5.5,1 C5.5,0.448 5.947,0 6.5,0 Z M16,14 L13,14 L13,16 L16,16 L16,14 Z M5,14 L2,14 L2,16 L5,16 L5,14 Z M10.5,2 L7.5,2 L7.5,4 L10.5,4 L10.5,2 Z"></path></clipPath></defs><rect x="0px" y="0px" width="24px" height="24px" fill="#FFFFFF"></rect><g clip-path="url(#i0)"><g transform="translate(3.0 3.0)"><g clip-path="url(#i1)"><g transform="translate(-3.0 -3.0)"><g clip-path="url(#i0)"><polygon points="3,3 21,3 21,21 3,21 3,3" stroke="none" fill="#313133"></polygon></g></g></g></g></g></svg>