<?xml version="1.0" encoding="UTF-8"?>
<svg width="100px" height="100px" viewBox="0 0 100 100" version="1.1" xmlns="http://www.w3.org/2000/svg" xmlns:xlink="http://www.w3.org/1999/xlink">
    <title>编组 7</title>
    <g id="------设计稿" stroke="none" stroke-width="1" fill="none" fill-rule="evenodd">
        <g id="页面设置" transform="translate(-1240, -137)">
            <g id="编组-7" transform="translate(1240, 137)">
                <rect id="矩形" fill="#FFFFFF" x="0" y="0" width="100" height="100"></rect>
                <g id="Group-5" transform="translate(8.75, 27.9167)">
                    <g id="Group-2" transform="translate(4.1667, 0)">
                        <path d="M10.4166667,0 L63.75,0 C65.5909492,-3.16427031e-15 67.0833333,1.49238417 67.0833333,3.33333333 L67.0833333,40.8333333 L67.0833333,40.8333333 L7.08333333,40.8333333 L7.08333333,3.33333333 C7.08333333,1.49238417 8.5757175,7.82266085e-16 10.4166667,0 Z" id="Rectangle" fill="#E3E7EA"></path>
                        <rect id="Rectangle-2" fill="#BFC9D5" x="0" y="40.8333333" width="74.1666667" height="3.33333333" rx="0.833333333"></rect>
                        <path d="M29.5833333,40.8333333 L44.5833333,40.8333333 L44.5833333,41.6666667 C44.5833333,42.126904 44.2102373,42.5 43.75,42.5 L30.4166667,42.5 C29.9564294,42.5 29.5833333,42.126904 29.5833333,41.6666667 L29.5833333,40.8333333 L29.5833333,40.8333333 Z" id="Rectangle-3" fill="#AEBBCA"></path>
                        <rect id="Rectangle-9" fill="#F7F8FA" x="9.58333333" y="2.5" width="55" height="35.8333333" rx="0.833333333"></rect>
                        <path d="M23.75,9.16666667 L64.5833333,9.16666667 L64.5833333,9.16666667 L64.5833333,37.5 C64.5833333,37.9602373 64.2102373,38.3333333 63.75,38.3333333 L22.9166667,38.3333333 L22.9166667,38.3333333 L22.9166667,10 C22.9166667,9.53976271 23.2897627,9.16666667 23.75,9.16666667 Z" id="Rectangle-4" fill="#DCDEE0"></path>
                        <path d="M24.5833333,13.3333333 L64.5833333,13.3333333 L64.5833333,37.5 C64.5833333,37.9602373 64.2102373,38.3333333 63.75,38.3333333 L24.5833333,38.3333333 L24.5833333,38.3333333 L24.5833333,13.3333333 Z" id="Rectangle-4" fill="#FFFFFF"></path>
                        <g id="Group" transform="translate(28.75, 17.5)" fill="#BFC9D5" fill-rule="nonzero">
                            <polygon id="Rectangle" points="7.51336633 8.8817842e-14 9.180033 8.8817842e-14 7.08333333 6.66666667 5.41666667 6.66666667"></polygon>
                            <polygon id="Rectangle-Copy" points="2.49112349 1.74675089e-13 4.16666667 1.74675089e-13 1.67554317 3.33617602 4.16666667 6.66666667 2.49112349 6.66666667 0 3.32208395"></polygon>
                            <polygon id="Rectangle-Copy-2" transform="translate(12.5, 3.3333) scale(-1, 1) translate(-12.5, -3.3333)" points="12.9077902 1.74675089e-13 14.5833333 1.74675089e-13 12.0922098 3.33617602 14.5833333 6.66666667 12.9077902 6.66666667 10.4166667 3.32208395"></polygon>
                        </g>
                        <rect id="Rectangle-10" fill="#BFC9D5" x="44.1666667" y="23.3333333" width="1" height="1"></rect>
                        <rect id="Rectangle-10-Copy-3" fill="#BFC9D5" x="45.4166667" y="23.3333333" width="1" height="1"></rect>
                        <rect id="Rectangle-10-Copy-4" fill="#BFC9D5" x="46.6666667" y="23.3333333" width="1" height="1"></rect>
                        <rect id="Rectangle-10" fill="#155BD4" x="24.5833333" y="10.8333333" width="1" height="1"></rect>
                        <rect id="Rectangle-10-Copy" fill="#155BD4" x="26.25" y="10.8333333" width="1" height="1"></rect>
                        <rect id="Rectangle-10-Copy-2" fill="#FFFFFF" x="27.9166667" y="10.8333333" width="1" height="1"></rect>
                    </g>
                    <g id="Group-4" transform="translate(5.4167, 24.1667)" fill-rule="nonzero">
                        <g id="Processsettings" fill="#155BD4">
                            <path d="M0.00357215086,9.96065205 C0.00331455755,9.25542224 0.0712147047,8.55181116 0.206341742,7.85959652 C1.42241419,7.71863901 2.49266499,6.99331608 3.07247305,5.91718193 C3.68807978,4.79493292 3.74180613,3.44977484 3.21765699,2.282181 C4.27853553,1.25130399 5.55784685,0.471385328 6.96114988,0 C7.6278899,1.05378682 8.78713222,1.69536666 10.0358593,1.70169043 C11.2845863,1.70801419 12.4502924,1.07820829 13.1277127,0.0312285352 C14.530678,0.518713079 15.8058087,1.31491367 16.8586897,2.36087689 C16.370787,3.51176731 16.4367088,4.82210629 17.0376665,5.91843107 C17.5982363,6.95953192 18.6194646,7.67438539 19.7911551,7.84585598 C20.0888915,9.36406673 20.06245,10.9278808 19.7135568,12.4352008 C18.5735358,12.6286013 17.5863955,13.3354842 17.0376665,14.3513834 C16.481105,15.3654156 16.381054,16.5673134 16.7623176,17.6591094 C15.6754061,18.7092179 14.3618302,19.4967642 12.9224527,19.9612766 C12.227707,19.0774739 11.1629028,18.5634763 10.0373752,18.5686045 C8.91184759,18.5737328 7.8517899,19.0974119 7.16515836,19.9875086 C5.72862219,19.5401969 4.41351639,18.7711321 3.32028703,17.7390544 C3.73196362,16.6277278 3.64065047,15.3928512 3.06996988,14.3538817 C2.50308393,13.3014155 1.4662921,12.5827887 0.280185303,12.4202111 C0.095114935,11.6134312 0.00232179368,10.7883052 0.00357215086,9.96065205 Z M10,14.2751924 C11.7366196,14.2782185 13.3039071,13.2364145 13.9704723,11.6359419 C14.6370375,10.0354694 14.2714854,8.19181728 13.0444046,6.9653442 C11.8173238,5.73887111 9.97059925,5.37134232 8.36602345,6.0342688 C6.76144764,6.69719528 5.71531829,8.25989941 5.71582135,9.99312973 C5.71443902,12.3561769 7.63232893,14.273117 10,14.2751924 L10,14.2751924 Z" id="Shape"></path>
                        </g>
                        <circle id="Oval" fill="#F2F3F5" cx="10" cy="10" r="4.58333333"></circle>
                    </g>
                    <g id="Group-4-Copy" transform="translate(0, 23.3333)" fill-rule="nonzero">
                        <g id="Processsettings" fill="#155BD4">
                            <path d="M0.00148839619,4.15027169 C0.00138106564,3.85642593 0.0296727936,3.56325465 0.0859757257,3.27483188 C0.592672579,3.21609959 1.03861041,2.9138817 1.28019711,2.46549247 C1.53669991,1.99788871 1.55908589,1.43740618 1.34069041,0.950908748 C1.78272314,0.521376664 2.31576952,0.196410553 2.90047912,0 C3.17828746,0.43907784 3.66130509,0.706402774 4.18160803,0.709037677 C4.70191097,0.711672581 5.18762183,0.449253455 5.4698803,0.0130118896 C6.05444916,0.216130449 6.58575362,0.547880698 7.02445406,0.983698706 C6.82116126,1.46323638 6.84862866,2.00921095 7.09902771,2.46601295 C7.33259846,2.89980497 7.75811025,3.19766058 8.24631461,3.26910666 C8.37037146,3.90169447 8.35935416,4.55328368 8.21398199,5.18133367 C7.73897326,5.26191719 7.32766479,5.55645175 7.09902771,5.97974309 C6.86712708,6.40225651 6.82543918,6.90304723 6.98429901,7.35796223 C6.5314192,7.79550744 5.9840959,8.12365173 5.38435528,8.31719859 C5.09487793,7.94894747 4.65120952,7.73478178 4.18223967,7.73691855 C3.71326983,7.73905532 3.27157913,7.95725497 2.98548265,8.32812858 C2.38692591,8.14174869 1.83896516,7.82130503 1.38345293,7.39127266 C1.55498484,6.92821991 1.5169377,6.41368801 1.27915412,5.98078404 C1.04295164,5.54225646 0.610955041,5.24282864 0.116743876,5.17508796 C0.0396312229,4.83892966 0.000967414033,4.49512715 0.00148839619,4.15027169 Z M4.16666667,5.94799684 C4.89025815,5.94925771 5.54329464,5.5151727 5.82103013,4.84830915 C6.09876563,4.18144559 5.94645226,3.4132572 5.43516858,2.90222675 C4.92388491,2.3911963 4.15441636,2.2380593 3.4858431,2.51427867 C2.81726985,2.79049803 2.38138262,3.44162475 2.38159223,4.16380405 C2.38101626,5.14840706 3.18013705,5.94713207 4.16666667,5.94799684 L4.16666667,5.94799684 Z" id="Shape"></path>
                        </g>
                        <circle id="Oval" fill="#F2F3F5" cx="4.16666667" cy="4.16666667" r="1.90972222"></circle>
                    </g>
                </g>
            </g>
        </g>
    </g>
</svg>