<?xml version="1.0" encoding="UTF-8"?><svg version="1.1" width="24px" height="24px" viewBox="0 0 24.0 24.0" xmlns="http://www.w3.org/2000/svg" xmlns:xlink="http://www.w3.org/1999/xlink"><defs><clipPath id="i0"><path d="M24,0 L24,24 L0,24 L0,0 L24,0 Z"></path></clipPath><clipPath id="i1"><path d="M8.99703832,7.10542736e-15 C10.8645834,7.10542736e-15 12.261421,1.71526168 12.1369018,3.67590574 L10.2150499,3.67590574 C10.2150499,2.64205116 9.74097124,2.03705219 8.99703832,2 L3.2006811,2 C2.38170995,2.20894954 2,2.77671865 2,3.82874291 C2,4.89214977 2.36980777,5.49534085 3.2006811,5.82319158 L5.22947434,5.82319158 L5.22947434,7.82319158 L3.05197144,7.82319158 L2.70527513,7.77076832 C0.93756846,7.17468756 1.0658141e-14,5.78813288 1.0658141e-14,3.82874291 C1.0658141e-14,1.84586039 0.952111727,0.496931315 2.76116333,0.0349578857 L3.05197144,7.10542736e-15 L8.99703832,7.10542736e-15 Z M15.0926476,7.10542736e-15 L15.4393439,0.0524232594 C17.2070506,0.648504024 18.1446191,2.0350587 18.1446191,3.99444867 C18.1446191,5.97733119 17.1925073,7.32626026 15.3834557,7.78823369 L15.0926476,7.82319158 L9.14758076,7.82319158 C7.28003566,7.82319158 5.88319808,6.1079299 6.00771726,4.14728584 L7.92956914,4.14728584 C7.92956914,5.18114042 8.40364784,5.78613939 9.14758076,5.82319158 L14.943938,5.82319158 C15.7629091,5.61424204 16.1446191,5.04647293 16.1446191,3.99444867 C16.1446191,2.93104181 15.7748113,2.32785073 14.943938,2 L12.9151447,2 L12.9151447,7.10542736e-15 L15.0926476,7.10542736e-15 Z"></path></clipPath></defs><rect x="0px" y="0px" width="24px" height="24px" fill="#FFFFFF"></rect><g clip-path="url(#i0)"><g transform="translate(3.0 8.0)"><g clip-path="url(#i1)"><g transform="translate(-3.0 -8.0)"><g clip-path="url(#i0)"><polygon points="3,8 21.1446191,8 21.1446191,15.8231916 3,15.8231916 3,8" stroke="none" fill="#313133"></polygon></g></g></g></g></g></svg>