<?xml version="1.0" encoding="UTF-8"?>
<svg width="13.3333333px" height="9.616px" viewBox="0 0 13.3333333 9.616" version="1.1" xmlns="http://www.w3.org/2000/svg" xmlns:xlink="http://www.w3.org/1999/xlink">
    <title>编组 2</title>
    <g id="------设计稿" stroke="none" stroke-width="1" fill="none" fill-rule="evenodd">
        <g id="页面设置" transform="translate(-165.3333, -185.0507)" fill="currentColor">
            <g id="编组备份-18" transform="translate(154, 172)">
                <g id="编组-2" transform="translate(10, 10)">
                    <path d="M2.66666667,10.6666667 L3.36,8.75733333 L6.54933333,8.75733333 L7.24266667,10.6666667 L8.576,10.6666667 L5.664,3.05066667 L4.24533333,3.05066667 L1.33333333,10.6666667 L2.66666667,10.6666667 Z M6.176,7.73333333 L3.73333333,7.73333333 L4.93866667,4.39466667 L4.98133333,4.39466667 L6.176,7.73333333 Z" id="A" fill-rule="nonzero"></path>
                    <path d="M1.33333333,11.3333333 L14.6666667,11.3333333 L14.6666667,12.6666667 L1.33333333,12.6666667 Z M9.33333333,7.33333333 L14.6666667,7.33333333 L14.6666667,8.66666667 L9.33333333,8.66666667 Z M8,3.33333333 L14.6666667,3.33333333 L14.6666667,4.66666667 L8,4.66666667 Z" id="形状结合"></path>
                </g>
            </g>
        </g>
    </g>
</svg>