<?xml version="1.0" encoding="UTF-8"?><svg version="1.1" width="24px" height="24px" viewBox="0 0 24.0 24.0" xmlns="http://www.w3.org/2000/svg" xmlns:xlink="http://www.w3.org/1999/xlink"><defs><clipPath id="i0"><path d="M24,0 L24,24 L0,24 L0,0 L24,0 Z"></path></clipPath><clipPath id="i1"><path d="M16.982,0 C18.494,0 19.74,1.05 19.74,2.758 C19.74,3.234 19.6,4.018 18.844,4.606 C19.936,5.054 20.482,6.104 20.482,7.364 C20.482,9.436 18.9,10.794 16.954,10.794 C14.994,10.794 13.552,9.366 13.44,7.476 L15.302,7.476 C15.386,8.246 15.918,9.03 16.968,9.03 C17.934,9.03 18.62,8.288 18.62,7.35 C18.62,5.712 17.1835,5.595 16.6868469,5.58664286 L16.268,5.586 L16.268,3.822 L16.534,3.822 C16.856,3.822 17.878,3.794 17.878,2.744 C17.878,2.198 17.542,1.764 17.01,1.764 C16.548,1.764 16.044,2.058 16.058,2.702 L14.196,2.702 C14.182,1.134 15.302,0 16.982,0 Z M5.46,0.182 L5.46,10.542 L3.598,10.542 L3.598,2.786 L1.47,5.572 L0,4.452 L3.318,0.182 L5.46,0.182 Z M10.143,0 C12.075,0 13.545,1.288 13.545,3.36 C13.545,4.592 12.971,5.642 11.431,7.014 L9.457,8.778 L13.545,8.778 L13.545,10.542 L6.853,10.542 L6.853,8.778 L10.423,5.46 C11.011,4.914 11.683,4.354 11.683,3.332 C11.683,2.548 11.235,1.764 10.199,1.764 C9.009,1.764 8.533,2.842 8.603,3.766 L6.741,3.766 C6.671,1.918 7.707,0 10.143,0 Z"></path></clipPath></defs><rect x="0px" y="0px" width="24px" height="24px" fill="#FFFFFF"></rect><g clip-path="url(#i0)"><g transform="translate(0.6999999999999993 6.458)"><g clip-path="url(#i1)"><polygon points="0,0 20.482,0 20.482,10.794 0,10.794 0,0" stroke="none" fill="#313133"></polygon></g></g></g></svg>