<?xml version="1.0" encoding="UTF-8"?><svg version="1.1" width="24px" height="24px" viewBox="0 0 24.0 24.0" xmlns="http://www.w3.org/2000/svg" xmlns:xlink="http://www.w3.org/1999/xlink"><defs><clipPath id="i0"><path d="M24,0 L24,24 L0,24 L0,0 L24,0 Z"></path></clipPath><clipPath id="i1"><path d="M10,9 L13,11 L13,16 L0,16 L0,11 L3,9 L10,9 Z M9.39444872,11 L3.60555128,11 L2,12.0703675 L2,14 L11,14 L11,12.0703675 L9.39444872,11 Z M20,11 L20,13 L15,13 L15,11 L20,11 Z M20,7 L20,9 L14,9 L14,7 L20,7 Z M6.5,0 C8.709139,0 10.5,1.790861 10.5,4 C10.5,6.209139 8.709139,8 6.5,8 C4.290861,8 2.5,6.209139 2.5,4 C2.5,1.790861 4.290861,0 6.5,0 Z M6.5,2 C5.3954305,2 4.5,2.8954305 4.5,4 C4.5,5.1045695 5.3954305,6 6.5,6 C7.6045695,6 8.5,5.1045695 8.5,4 C8.5,2.8954305 7.6045695,2 6.5,2 Z M20,3 L20,5 L13,5 L13,3 L20,3 Z"></path></clipPath></defs><rect x="0px" y="0px" width="24px" height="24px" fill="#FFFFFF"></rect><g clip-path="url(#i0)"><g transform="translate(2.0 3.0)"><g clip-path="url(#i1)"><g transform="translate(-2.0 -3.0)"><g clip-path="url(#i0)"><polygon points="2,3 22,3 22,19 2,19 2,3" stroke="none" fill="#313133"></polygon></g></g></g></g></g></svg>