<?xml version="1.0" encoding="UTF-8"?>
<svg width="318.5px" height="81.5px" viewBox="0 0 318.5 81.5" version="1.1" xmlns="http://www.w3.org/2000/svg" xmlns:xlink="http://www.w3.org/1999/xlink">
    <title>编组 52</title>
    <defs>
        <filter x="-6.1%" y="-15.3%" width="112.3%" height="141.7%" filterUnits="objectBoundingBox" id="filter-1">
            <feOffset dx="0" dy="2" in="SourceAlpha" result="shadowOffsetOuter1"></feOffset>
            <feGaussianBlur stdDeviation="2" in="shadowOffsetOuter1" result="shadowBlurOuter1"></feGaussianBlur>
            <feColorMatrix values="0 0 0 0 0.196078431   0 0 0 0 0.196078431   0 0 0 0 0.2  0 0 0 0.206539554 0" type="matrix" in="shadowBlurOuter1" result="shadowMatrixOuter1"></feColorMatrix>
            <feMerge>
                <feMergeNode in="shadowMatrixOuter1"></feMergeNode>
                <feMergeNode in="SourceGraphic"></feMergeNode>
            </feMerge>
        </filter>
    </defs>
    <g id="------设计稿" stroke="none" stroke-width="1" fill="none" fill-rule="evenodd">
        <g id="页面设置" transform="translate(-559.5, -325.5)">
            <g id="编组-52" transform="translate(564, 328)">
                <g id="编组" transform="translate(152, 33.7866) rotate(70) translate(-152, -33.7866)translate(135, 20)" fill="#D8D8D8" fill-rule="nonzero">
                    <path d="M1.53231648,27.4332519 C1.46155225,27.4332519 1.39078803,27.4332519 1.3200238,27.4096638 C0.518029218,27.2917234 -0.0480846037,26.5604931 0.0462676999,25.7584985 C0.777498052,18.8943684 3.20706987,13.8229321 7.24063084,10.6621299 C10.1419642,8.37408655 13.821704,7.10033045 18.16191,6.8644497 L19.0582569,6.81727354 L19.0582569,1.93454184 C19.0582569,0.000319613686 20.8273626,-0.424265752 21.7708856,0.519257283 L32.786517,11.7235933 C34.1782135,13.1388779 34.1074493,14.6013386 32.7157528,16.0166231 L21.9831783,26.9379023 C20.8509506,28.0701299 19.0582569,27.3860757 19.0582569,25.7820866 L19.0582569,20.5455337 L17.9496173,20.5455337 C13.9160563,20.5455337 6.58016472,21.3475283 2.73530835,26.7491977 C2.49942759,27.1973711 2.02766607,27.4332519 1.53231648,27.4332519 Z" id="路径"></path>
                </g>
                <g id="编组备份-3" filter="url(#filter-1)">
                    <rect id="矩形" stroke="#155BD4" fill="#F7F8FA" x="0" y="0" width="122" height="36" rx="2"></rect>
                    <g id="编组" transform="translate(10, 10)" fill="#155BD4" fill-rule="nonzero">
                        <path d="M2.57066667,11.3333333 L3.28533333,9.37066667 L6.56,9.37066667 L7.27466667,11.3333333 L8.52266667,11.3333333 L5.58933333,3.71733333 L4.26666667,3.71733333 L1.33333333,11.3333333 L2.57066667,11.3333333 Z M6.208,8.41066667 L3.63733333,8.41066667 L4.90666667,4.96533333 L4.94933333,4.96533333 L6.208,8.41066667 Z" id="A"></path>
                        <path d="M10.96,11.4826667 C11.4506667,11.4826667 11.8773333,11.3866667 12.24,11.216 C12.56,11.056 12.8266667,10.832 13.04,10.5546667 L13.04,11.3333333 L14.0853333,11.3333333 L14.0853333,7.81333333 C14.0853333,7.14133333 13.9146667,6.62933333 13.584,6.27733333 C13.2,5.872 12.6026667,5.66933333 11.792,5.66933333 C11.1093333,5.66933333 10.5546667,5.78666667 10.1493333,6.04266667 C9.68,6.32 9.38133333,6.768 9.264,7.36533333 L10.384,7.46133333 C10.448,7.152 10.608,6.928 10.864,6.77866667 C11.0773333,6.65066667 11.3653333,6.58666667 11.7173333,6.58666667 C12.5493333,6.58666667 12.9653333,6.97066667 12.9653333,7.73866667 L12.9653333,7.96266667 L11.728,7.99466667 C10.9173333,8.016 10.2773333,8.176 9.82933333,8.496 C9.33866667,8.82666667 9.09333333,9.30666667 9.09333333,9.92533333 C9.09333333,10.384 9.264,10.7573333 9.616,11.0453333 C9.936,11.3333333 10.384,11.4826667 10.96,11.4826667 Z M11.216,10.6186667 C10.928,10.6186667 10.6933333,10.544 10.5226667,10.4053333 C10.3413333,10.2666667 10.256,10.096 10.256,9.88266667 C10.256,9.2 10.768,8.83733333 11.8026667,8.816 L12.9653333,8.784 L12.9653333,9.104 C12.9653333,9.53066667 12.784,9.89333333 12.4426667,10.1813333 C12.1013333,10.4693333 11.696,10.6186667 11.216,10.6186667 Z" id="a"></path>
                    </g>
                    <text id="单行文本" font-family="PingFangSC-Regular, PingFang SC" font-size="14" font-weight="normal" line-spacing="20" fill="#155BD4">
                        <tspan x="36" y="23">单行文本</tspan>
                    </text>
                </g>
                <text id="选择左侧控件，点击或者拖拽到此处" font-family="PingFangSC-Regular, PingFang SC" font-size="14" font-weight="normal" line-spacing="20" fill="#323233">
                    <tspan x="90" y="74">选择左侧控件，点击或者拖拽到此处</tspan>
                </text>
            </g>
        </g>
    </g>
</svg>