<?xml version="1.0" encoding="UTF-8"?><svg version="1.1" width="24px" height="24px" viewBox="0 0 24.0 24.0" xmlns="http://www.w3.org/2000/svg" xmlns:xlink="http://www.w3.org/1999/xlink"><defs><clipPath id="i0"><path d="M24,0 L24,24 L0,24 L0,0 L24,0 Z"></path></clipPath><clipPath id="i1"><path d="M10,0 C15.5228475,0 20,4.4771525 20,10 C20,15.5228475 15.5228475,20 10,20 C4.4771525,20 0,15.5228475 0,10 C0,4.4771525 4.4771525,0 10,0 Z M10,2 C5.581722,2 2,5.581722 2,10 C2,14.418278 5.581722,18 10,18 C14.418278,18 18,14.418278 18,10 C18,5.581722 14.418278,2 10,2 Z"></path></clipPath><clipPath id="i2"><path d="M4,0 C6.209139,0 8,1.790861 8,4 C8,6.209139 6.209139,8 4,8 C1.790861,8 0,6.209139 0,4 C0,1.790861 1.790861,0 4,0 Z"></path></clipPath></defs><rect x="0px" y="0px" width="24px" height="24px" fill="#FFFFFF"></rect><g clip-path="url(#i0)"><g transform="translate(2.0 2.0)"><g clip-path="url(#i1)"><g transform="translate(-2.0 -2.0)"><g clip-path="url(#i0)"><polygon points="2,2 22,2 22,22 2,22 2,2" stroke="none" fill="#313133"></polygon></g></g></g></g><g transform="translate(8.0 8.0)"><g clip-path="url(#i2)"><polygon points="0,0 8,0 8,8 0,8 0,0" stroke="none" fill="#313133"></polygon></g></g></g></svg>