<?xml version="1.0" encoding="UTF-8"?>
<svg width="1em" height="1em" viewBox="0 0 17 15" version="1.1" xmlns="http://www.w3.org/2000/svg"
    xmlns:xlink="http://www.w3.org/1999/xlink">
    <title>back 返回</title>
    <g id="页面-2" stroke="none" stroke-width="1" fill="none" fill-rule="evenodd">
        <g id="流程设计-侧栏备份-4" transform="translate(-57, -71)" fill="currentColor">
            <path
                d="M68.0976089,71 L73.6585831,75.7405636 C74.110304,76.1256422 74.114374,76.8123834 73.6672477,77.2025877 L68.1138924,82.0489667 L66.7946814,80.5944162 L70.4593464,77.3954603 L66.6951546,77.3961951 C64.1041691,77.3961951 62.1576259,78.7706406 60.7224325,81.137182 C60.2030983,81.9935306 59.7920381,82.9183119 59.4806396,83.8436533 C59.371717,84.1673239 59.2833459,84.466892 59.2140804,84.7339133 C59.1737602,84.8893499 59.1494175,84.9958586 59.1395021,85.0450522 L58.9470244,86 L57,85.6223855 L57.1924777,84.6674377 C57.2531017,84.3666614 57.3826724,83.8671603 57.5959563,83.233373 C57.9497281,82.1821166 58.4172547,81.1303001 59.0167178,80.1418242 C60.778088,77.2374383 63.3104802,75.4493274 66.6951546,75.4493274 L70.2906456,75.4485926 L66.7957272,72.4694976 L68.0976089,71 Z"
                id="back-返回"></path>
        </g>
    </g>
</svg>