<?xml version="1.0" encoding="UTF-8"?><svg version="1.1" width="24px" height="24px" viewBox="0 0 24.0 24.0" xmlns="http://www.w3.org/2000/svg" xmlns:xlink="http://www.w3.org/1999/xlink"><defs><clipPath id="i0"><path d="M24,0 L24,24 L0,24 L0,0 L24,0 Z"></path></clipPath><clipPath id="i1"><path d="M16.5,0 L16.5,16.5 L0,16.5 L0,0 L16.5,0 Z M15,1.5 L1.5,1.5 L1.5,15 L15,15 L15,1.5 Z"></path></clipPath><clipPath id="i2"><path d="M9,0 L9,1.5 L0,1.5 L0,0 L9,0 Z"></path></clipPath><clipPath id="i3"><path d="M2.25,0 L0,3 L0,0 L2.25,0 Z"></path></clipPath><clipPath id="i4"><path d="M2.25,0 L2.25,3 L0,0 L2.25,0 Z"></path></clipPath><clipPath id="i5"><path d="M1.5,0 L1.5,9 L0,9 L0,0 L1.5,0 Z"></path></clipPath><clipPath id="i6"><path d="M2.81167226,0 L4.5,1.5 L0,1.5 L1.68797547,0 L2.81167226,0 Z"></path></clipPath><clipPath id="i7"><path d="M3.75,0 L3.75,3.75 L0,3.75 L0,0 L3.75,0 Z"></path></clipPath></defs><rect x="0px" y="0px" width="24px" height="24px" fill="#FFFFFF"></rect><g clip-path="url(#i0)"><g transform="translate(3.75 3.75)"><g clip-path="url(#i1)"><polygon points="0,0 16.5,0 16.5,16.5 0,16.5 0,0" stroke="none" fill="#313133"></polygon></g></g><g transform="translate(7.5 7.5)"><g clip-path="url(#i2)"><polygon points="0,0 9,0 9,1.5 0,1.5 0,0" stroke="none" fill="#313133"></polygon></g><g clip-path="url(#i3)"><polygon points="0,0 2.25,0 2.25,3 0,3 0,0" stroke="none" fill="#313133"></polygon></g><g transform="translate(6.75 0.0)"><g clip-path="url(#i4)"><polygon points="0,0 2.25,0 2.25,3 0,3 0,0" stroke="none" fill="#313133"></polygon></g></g><g transform="translate(3.75 0.0)"><g clip-path="url(#i5)"><polygon points="0,0 1.5,0 1.5,9 0,9 0,0" stroke="none" fill="#313133"></polygon></g></g><g transform="translate(2.25 7.5)"><g clip-path="url(#i6)"><polygon points="0,0 4.5,0 4.5,1.5 0,1.5 0,0" stroke="none" fill="#313133"></polygon></g></g></g><g transform="translate(3.0 3.0)"><g clip-path="url(#i7)"><polygon points="0,0 3.75,0 3.75,3.75 0,3.75 0,0" stroke="none" fill="#313133"></polygon></g></g><g transform="translate(3.0 17.25)"><g clip-path="url(#i7)"><polygon points="0,0 3.75,0 3.75,3.75 0,3.75 0,0" stroke="none" fill="#313133"></polygon></g></g><g transform="translate(17.25 17.25)"><g clip-path="url(#i7)"><polygon points="0,0 3.75,0 3.75,3.75 0,3.75 0,0" stroke="none" fill="#313133"></polygon></g></g><g transform="translate(17.25 3.0)"><g clip-path="url(#i7)"><polygon points="0,0 3.75,0 3.75,3.75 0,3.75 0,0" stroke="none" fill="#313133"></polygon></g></g></g></svg>