<svg t="1691485533437" class="icon" viewBox="0 0 1024 1024" version="1.1" xmlns="http://www.w3.org/2000/svg" p-id="2560"
    width="1em" height="1em" fill="currentColor">
    <path
        d="M85.333333 170.666667 85.333333 298.666667 170.666667 298.666667 170.666667 170.666667 85.333333 170.666667M298.666667 170.666667 170.666667 170.666667C170.666667 170.666667 170.666667 170.666667 170.666667 170.666667L85.333333 170.666667C85.333333 123.306667 123.733333 85.333333 170.666667 85.333333L298.666667 85.333333 298.666667 170.666667M938.666667 170.666667 938.666667 298.666667 853.333333 298.666667 853.333333 170.666667 938.666667 170.666667M725.333333 170.666667 853.333333 170.666667C853.333333 170.666667 853.333333 170.666667 853.333333 170.666667L938.666667 170.666667C938.666667 123.306667 900.266667 85.333333 853.333333 85.333333L725.333333 85.333333 725.333333 170.666667M938.666667 853.333333 938.666667 725.333333 853.333333 725.333333 853.333333 853.333333 938.666667 853.333333M725.333333 853.333333 853.333333 853.333333C853.333333 853.333333 853.333333 853.333333 853.333333 853.333333L938.666667 853.333333C938.666667 900.693333 900.266667 938.666667 853.333333 938.666667L725.333333 938.666667 725.333333 853.333333M85.333333 853.333333 85.333333 725.333333 170.666667 725.333333 170.666667 853.333333 85.333333 853.333333M298.666667 853.333333 170.666667 853.333333C170.666667 853.333333 170.666667 853.333333 170.666667 853.333333L85.333333 853.333333C85.333333 900.693333 123.733333 938.666667 170.666667 938.666667L298.666667 938.666667 298.666667 853.333333M426.666667 85.333333 597.333333 85.333333 597.333333 170.666667 426.666667 170.666667 426.666667 85.333333M426.666667 853.333333 597.333333 853.333333 597.333333 938.666667 426.666667 938.666667 426.666667 853.333333M853.333333 426.666667 938.666667 426.666667 938.666667 597.333333 853.333333 597.333333 853.333333 426.666667M85.333333 426.666667 170.666667 426.666667 170.666667 597.333333 85.333333 597.333333 85.333333 426.666667Z"
        p-id="2561"></path>
</svg>