<?xml version="1.0" encoding="UTF-8"?>
<svg width="12.752px" height="7.76533333px" viewBox="0 0 12.752 7.76533333" version="1.1" xmlns="http://www.w3.org/2000/svg" xmlns:xlink="http://www.w3.org/1999/xlink">
    <title>编组</title>
    <g id="------设计稿" stroke="none" stroke-width="1" fill="none" fill-rule="evenodd">
        <g id="页面设置" transform="translate(-35.3333, -185.7173)" fill="#323233" fill-rule="nonzero">
            <g id="编组备份-3" transform="translate(24, 172)">
                <g id="编组" transform="translate(10, 10)">
                    <path d="M2.57066667,11.3333333 L3.28533333,9.37066667 L6.56,9.37066667 L7.27466667,11.3333333 L8.52266667,11.3333333 L5.58933333,3.71733333 L4.26666667,3.71733333 L1.33333333,11.3333333 L2.57066667,11.3333333 Z M6.208,8.41066667 L3.63733333,8.41066667 L4.90666667,4.96533333 L4.94933333,4.96533333 L6.208,8.41066667 Z" id="A"></path>
                    <path d="M10.96,11.4826667 C11.4506667,11.4826667 11.8773333,11.3866667 12.24,11.216 C12.56,11.056 12.8266667,10.832 13.04,10.5546667 L13.04,11.3333333 L14.0853333,11.3333333 L14.0853333,7.81333333 C14.0853333,7.14133333 13.9146667,6.62933333 13.584,6.27733333 C13.2,5.872 12.6026667,5.66933333 11.792,5.66933333 C11.1093333,5.66933333 10.5546667,5.78666667 10.1493333,6.04266667 C9.68,6.32 9.38133333,6.768 9.264,7.36533333 L10.384,7.46133333 C10.448,7.152 10.608,6.928 10.864,6.77866667 C11.0773333,6.65066667 11.3653333,6.58666667 11.7173333,6.58666667 C12.5493333,6.58666667 12.9653333,6.97066667 12.9653333,7.73866667 L12.9653333,7.96266667 L11.728,7.99466667 C10.9173333,8.016 10.2773333,8.176 9.82933333,8.496 C9.33866667,8.82666667 9.09333333,9.30666667 9.09333333,9.92533333 C9.09333333,10.384 9.264,10.7573333 9.616,11.0453333 C9.936,11.3333333 10.384,11.4826667 10.96,11.4826667 Z M11.216,10.6186667 C10.928,10.6186667 10.6933333,10.544 10.5226667,10.4053333 C10.3413333,10.2666667 10.256,10.096 10.256,9.88266667 C10.256,9.2 10.768,8.83733333 11.8026667,8.816 L12.9653333,8.784 L12.9653333,9.104 C12.9653333,9.53066667 12.784,9.89333333 12.4426667,10.1813333 C12.1013333,10.4693333 11.696,10.6186667 11.216,10.6186667 Z" id="a"></path>
                </g>
            </g>
        </g>
    </g>
</svg>