<svg t="1691472159905" class="icon" viewBox="0 0 1024 1024" version="1.1" xmlns="http://www.w3.org/2000/svg" p-id="5080"
    width="1em" height="1em" fill="currentColor">
    <path
        d="M512 130c51.6 0 101.62 10.09 148.67 29.99 45.48 19.24 86.34 46.79 121.44 81.89s62.66 75.96 81.89 121.44c19.91 47.06 30 97.08 30 148.68s-10.09 101.62-29.99 148.67c-19.24 45.48-46.79 86.34-81.89 121.44S706.16 844.77 660.68 864c-47.06 19.91-97.08 30-148.68 30s-101.62-10.09-148.67-29.99c-45.48-19.24-86.34-46.79-121.44-81.89S179.23 706.16 160 660.68c-19.91-47.06-30-97.08-30-148.68s10.09-101.62 29.99-148.67c19.24-45.48 46.79-86.34 81.89-121.44s75.96-62.66 121.44-81.89c47.06-19.91 97.08-30 148.68-30m0-64C265.68 66 66 265.68 66 512s199.68 446 446 446 446-199.68 446-446S758.32 66 512 66z"
        p-id="5081"></path>
    <path d="M512 512m-249 0a249 249 0 1 0 498 0 249 249 0 1 0-498 0Z" p-id="5082"></path>
</svg>