<?xml version="1.0" encoding="UTF-8"?><svg version="1.1" width="24px" height="24px" viewBox="0 0 24.0 24.0" xmlns="http://www.w3.org/2000/svg" xmlns:xlink="http://www.w3.org/1999/xlink"><defs><clipPath id="i0"><path d="M24,0 L24,24 L0,24 L0,0 L24,0 Z"></path></clipPath><clipPath id="i1"><path d="M19.2949,6.3267 C19.7449,7.4647 19.9999,8.7017 19.9999,9.9997 C19.9999,15.5227 15.5229,19.9997 9.9999,19.9997 C8.7019,19.9997 7.4649,19.7447 6.3269,19.2947 L7.9079,17.7127 C8.5759,17.8947 9.2749,17.9997 9.9999,17.9997 C14.4109,17.9997 17.9999,14.4107 17.9999,9.9997 C17.9999,9.2757 17.8949,8.5767 17.7129,7.9087 L19.2949,6.3267 Z M10,6 C12.209,6 14,7.791 14,10 C14,12.209 12.209,14 10,14 C7.791,14 6,12.209 6,10 C6,7.791 7.791,6 10,6 Z M10,-1.77635684e-15 C11.298,-1.77635684e-15 12.535,0.255 13.673,0.706 L12.092,2.287 C11.424,2.105 10.725,2 10,2 C5.589,2 2,5.589 2,10 C2,10.725 2.105,11.424 2.287,12.092 L0.705,13.673 C0.255,12.535 -9.59232693e-14,11.298 -9.59232693e-14,10 C-9.59232693e-14,4.477 4.478,-1.77635684e-15 10,-1.77635684e-15 Z M10,8 C8.897,8 8,8.897 8,10 C8,11.103 8.897,12 10,12 C11.103,12 12,11.103 12,10 C12,8.897 11.103,8 10,8 Z"></path></clipPath></defs><rect x="0px" y="0px" width="24px" height="24px" fill="#FFFFFF"></rect><g clip-path="url(#i0)"><g transform="translate(2.0 2.0)"><g clip-path="url(#i1)"><g transform="translate(-2.0 -2.0)"><g clip-path="url(#i0)"><polygon points="2,2 21.9999,2 21.9999,21.9997 2,21.9997 2,2" stroke="none" fill="#313133"></polygon></g></g></g></g></g></svg>