<?xml version="1.0" encoding="UTF-8"?><svg version="1.1" width="24px" height="24px" viewBox="0 0 24.0 24.0" xmlns="http://www.w3.org/2000/svg" xmlns:xlink="http://www.w3.org/1999/xlink"><defs><clipPath id="i0"><path d="M24,0 L24,24 L0,24 L0,0 L24,0 Z"></path></clipPath><clipPath id="i1"><path d="M15,0 C15.5522847,0 16,0.44771525 16,1 L16,19 C16,19.5522847 15.5522847,20 15,20 L1,20 C0.44771525,20 0,19.5522847 0,19 L0,1 C0,0.44771525 0.44771525,0 1,0 L15,0 Z M14,2 L2,2 L2,18 L14,18 L14,2 Z M10,13 L10,15 L4,15 L4,13 L10,13 Z M12,9 L12,11 L4,11 L4,9 L12,9 Z M12,5 L12,7 L4,7 L4,5 L12,5 Z"></path></clipPath></defs><rect x="0px" y="0px" width="24px" height="24px" fill="#FFFFFF"></rect><g clip-path="url(#i0)"><g transform="translate(4.0 2.0)"><g clip-path="url(#i1)"><g transform="translate(-4.0 -2.0)"><g clip-path="url(#i0)"><polygon points="4,2 20,2 20,22 4,22 4,2" stroke="none" fill="#313133"></polygon></g></g></g></g></g></svg>