<?xml version="1.0" encoding="UTF-8"?><svg version="1.1" width="24px" height="24px" viewBox="0 0 24.0 24.0" xmlns="http://www.w3.org/2000/svg" xmlns:xlink="http://www.w3.org/1999/xlink"><defs><clipPath id="i0"><path d="M24,0 L24,24 L0,24 L0,0 L24,0 Z"></path></clipPath><clipPath id="i1"><path d="M12,3 C12.553,3 13,3.448 13,4 L13,19 C13,19.553 12.553,20 12,20 L1,20 C0.447,20 0,19.553 0,19 L0,4 C0,3.448 0.447,3 1,3 L12,3 Z M11,5 L2,5 L2,18 L11,18 L11,5 Z M15,0 C15.553,0 16,0.448 16,1 L16,18 L14,18 L14,2 L2,2 L2,0 L15,0 Z M9,14.5 L9,16.5 L4,16.5 L4,14.5 L9,14.5 Z M9,10.5 L9,12.5 L4,12.5 L4,10.5 L9,10.5 Z M9,6.5 L9,8.5 L4,8.5 L4,6.5 L9,6.5 Z"></path></clipPath></defs><rect x="0px" y="0px" width="24px" height="24px" fill="#FFFFFF"></rect><g clip-path="url(#i0)"><g transform="translate(4.0 2.0)"><g clip-path="url(#i1)"><g transform="translate(-4.0 -2.0)"><g clip-path="url(#i0)"><polygon points="4,2 20,2 20,22 4,22 4,2" stroke="none" fill="#313133"></polygon></g></g></g></g></g></svg>