<?xml version="1.0" encoding="UTF-8"?>
<svg width="1em" height="1em" viewBox="0 0 17 15" version="1.1" xmlns="http://www.w3.org/2000/svg"
    xmlns:xlink="http://www.w3.org/1999/xlink">
    <title>back 返回</title>
    <g id="页面-2" stroke="none" stroke-width="1" fill="none" fill-rule="evenodd">
        <g id="流程设计-侧栏备份-4" transform="translate(-24, -71)" fill="currentColor">
            <path
                d="M35.0976089,71 L40.6585831,75.7405636 C41.110304,76.1256422 41.114374,76.8123834 40.6672477,77.2025877 L35.1138924,82.0489667 L33.7946814,80.5944162 L37.4593464,77.3954603 L33.6951546,77.3961951 C31.1041691,77.3961951 29.1576259,78.7706406 27.7224325,81.137182 C27.2030983,81.9935306 26.7920381,82.9183119 26.4806396,83.8436533 C26.371717,84.1673239 26.2833459,84.466892 26.2140804,84.7339133 C26.1737602,84.8893499 26.1494175,84.9958586 26.1395021,85.0450522 L25.9470244,86 L24,85.6223855 L24.1924777,84.6674377 C24.2531017,84.3666614 24.3826724,83.8671603 24.5959563,83.233373 C24.9497281,82.1821166 25.4172547,81.1303001 26.0167178,80.1418242 C27.778088,77.2374383 30.3104802,75.4493274 33.6951546,75.4493274 L37.2906456,75.4485926 L33.7957272,72.4694976 L35.0976089,71 Z"
                id="back-返回" transform="translate(32.5, 78.5) scale(-1, 1) translate(-32.5, -78.5)"></path>
        </g>
    </g>
</svg>