<?xml version="1.0" encoding="UTF-8"?><svg version="1.1" width="24px" height="24px" viewBox="0 0 24.0 24.0" xmlns="http://www.w3.org/2000/svg" xmlns:xlink="http://www.w3.org/1999/xlink"><defs><clipPath id="i0"><path d="M24,0 L24,24 L0,24 L0,0 L24,0 Z"></path></clipPath><clipPath id="i1"><path d="M13,11 L18,13.25 L18,20 L0,20 L0,13.25 L5,11 L13,11 Z M12.5707306,13 L5.42926938,13 L2,14.5431712 L2,18 L16,18 L16,14.5431712 L12.5707306,13 Z M14,15 L14,17 L10,17 L10,15 L14,15 Z M9,0 C11.7614237,0 14,2.23857625 14,5 C14,7.76142375 11.7614237,10 9,10 C6.23857625,10 4,7.76142375 4,5 C4,2.23857625 6.23857625,0 9,0 Z M9,2 C7.34314575,2 6,3.34314575 6,5 C6,6.65685425 7.34314575,8 9,8 C10.6568542,8 12,6.65685425 12,5 C12,3.34314575 10.6568542,2 9,2 Z"></path></clipPath></defs><rect x="0px" y="0px" width="24px" height="24px" fill="#FFFFFF"></rect><g clip-path="url(#i0)"><g transform="translate(3.0 2.0)"><g clip-path="url(#i1)"><g transform="translate(-3.0 -2.0)"><g clip-path="url(#i0)"><polygon points="3,2 21,2 21,22 3,22 3,2" stroke="none" fill="#313133"></polygon></g></g></g></g></g></svg>